<svg version="1.1" viewBox="0 0 100 100" xmlns="http://www.w3.org/2000/svg">

  <g transform="translate(50 50)" stroke="darkblue" stroke-width="1">
    <g>
      <!-- orthogonals -->
      <line x1="-14.5" y1="-43" x2="14.5" y2="-43" />
      <line x1="-14.5" y1="-28.5" x2="14.5" y2="-28.5" />
      <line x1="-43" y1="-14.5" x2="43" y2="-14.5" />
      <line x1="-43" y1="0" x2="43" y2="0" />
      <line x1="-43" y1="14.5" x2="43" y2="14.5" />
      <line x1="-14.5" y1="28.5" x2="14.5" y2="28.5" />
      <line x1="-14.5" y1="43" x2="14.5" y2="43" />

      <!-- diagonals -->
      <line x1="-14.5" y1="-43" x2="43" y2="14.5" />
      <line x1="-14.5" y1="-14.5" x2="14.5" y2="14.5" />
      <line x1="-43" y1="-14.5" x2="14.5" y2="43" />
    </g>

    <g transform="rotate(90)">
      <!-- orthogonals -->
      <line x1="-14.5" y1="-43" x2="14.5" y2="-43" />
      <line x1="-14.5" y1="-28.5" x2="14.5" y2="-28.5" />
      <line x1="-43" y1="-14.5" x2="43" y2="-14.5" />
      <line x1="-43" y1="0" x2="43" y2="0" />
      <line x1="-43" y1="14.5" x2="43" y2="14.5" />
      <line x1="-14.5" y1="28.5" x2="14.5" y2="28.5" />
      <line x1="-14.5" y1="43" x2="14.5" y2="43" />

      <!-- diagonals -->
      <line x1="-14.5" y1="-43" x2="43" y2="14.5" />
      <line x1="-14.5" y1="-14.5" x2="14.5" y2="14.5" />
      <line x1="-43" y1="-14.5" x2="14.5" y2="43" />
    </g>
  </g>

</svg>